<?xml version="1.0" standalone="no"?>
<!DOCTYPE svg PUBLIC "-//W3C//DTD SVG 20010904//EN"
 "http://www.w3.org/TR/2001/REC-SVG-20010904/DTD/svg10.dtd">
<svg version="1.0" xmlns="http://www.w3.org/2000/svg"
 width="1032.000000pt" height="1032.000000pt" viewBox="0 0 1032.000000 1032.000000"
 preserveAspectRatio="xMidYMid meet">
<metadata>
Created by potrace 1.14, written by Peter Selinger 2001-2017
</metadata>
<g transform="translate(0.000000,1032.000000) scale(0.100000,-0.100000)"
fill="#000000" stroke="none">
<path d="M5049 10315 c-2 -1 -26 -6 -53 -9 -84 -12 -173 -47 -299 -119 -134
-76 -137 -78 -352 -202 -82 -48 -224 -129 -315 -182 -91 -52 -172 -99 -180
-104 -47 -28 -222 -129 -225 -129 -2 0 -40 -22 -84 -50 -45 -27 -84 -49 -86
-50 -3 0 -15 -6 -28 -14 -30 -19 -397 -231 -438 -253 -19 -10 -45 -26 -59 -34
-23 -15 -587 -340 -673 -388 -21 -12 -108 -62 -192 -111 -84 -49 -170 -99
-189 -110 -20 -11 -122 -70 -228 -131 -106 -61 -213 -123 -238 -137 -25 -14
-99 -56 -165 -95 -66 -38 -136 -79 -155 -89 -133 -75 -197 -119 -256 -177 -92
-90 -177 -224 -219 -346 -46 -132 -44 -36 -42 -2450 2 -2161 3 -2283 20 -2340
52 -172 184 -374 307 -467 32 -24 258 -158 266 -158 2 0 27 -15 56 -34 29 -18
76 -45 103 -60 28 -15 66 -37 85 -48 34 -20 667 -385 725 -418 17 -10 71 -41
120 -70 91 -53 103 -60 223 -128 37 -21 553 -319 1147 -662 594 -343 1107
-638 1140 -656 60 -33 136 -62 184 -71 100 -18 140 -21 246 -18 196 6 253 26
515 177 356 205 654 377 720 415 175 102 493 285 525 303 22 13 54 31 70 41
17 11 44 26 60 34 17 9 51 28 76 43 25 15 111 65 192 112 185 107 166 96 272
156 50 29 189 109 310 179 121 70 306 177 410 237 105 60 197 114 205 119 8 5
69 40 135 77 97 56 340 196 545 315 19 11 55 31 80 45 210 117 356 315 427
578 4 16 9 1055 10 2309 2 1886 0 2289 -11 2335 -64 258 -220 472 -426 582
-25 14 -191 109 -370 213 -415 240 -647 374 -685 395 -17 9 -87 50 -155 90
-69 40 -143 83 -165 95 -22 12 -69 39 -105 60 -36 20 -78 45 -95 55 -16 9
-160 93 -320 185 -159 92 -310 179 -335 193 -25 14 -58 34 -75 44 -16 10 -43
25 -60 33 -16 9 -39 21 -50 28 -40 25 -348 203 -465 269 -25 14 -153 88 -285
165 -132 76 -247 142 -255 146 -8 4 -28 16 -45 26 -16 10 -101 59 -188 109
-216 123 -279 143 -478 148 -70 1 -128 1 -130 -1z"/>
</g>
</svg>
